<?xml version="1.0" standalone="no"?><!DOCTYPE svg PUBLIC "-//W3C//DTD SVG 1.1//EN" "http://www.w3.org/Graphics/SVG/1.1/DTD/svg11.dtd"><svg t="1587288978253" class="icon" viewBox="0 0 1024 1024" version="1.1" xmlns="http://www.w3.org/2000/svg" p-id="10666" xmlns:xlink="http://www.w3.org/1999/xlink" width="64" height="64"><defs><style type="text/css"></style></defs><path d="M976.384 549.888l-443.392 244.736c-12.8 7.168-28.672 7.168-41.472 0L48.128 549.888c-30.208-16.384-30.208-59.392 0-75.776L491.52 228.864c12.8-7.168 28.672-7.168 41.472 0l443.392 244.736c29.184 17.408 29.184 59.392 0 76.288z" fill="#29BCB8" opacity=".6" p-id="10667"></path><path d="M976.384 727.552l-443.392 244.736c-12.8 7.168-28.672 7.168-41.472 0L48.128 727.552c-30.208-16.384-30.208-59.392 0-75.776L491.52 407.04c12.8-7.168 28.672-7.168 41.472 0l443.392 244.736c29.184 16.384 29.184 59.392 0 75.776z" fill="#29BCB8" opacity=".6" p-id="10668"></path><path d="M976.384 372.736l-443.392 244.736c-12.8 7.168-28.672 7.168-41.472 0L48.128 372.736c-30.208-16.384-30.208-59.392 0-75.776L491.52 51.712c12.8-7.168 28.672-7.168 41.472 0l443.392 244.736c29.184 16.384 29.184 59.392 0 76.288z" fill="#29BCB8" p-id="10669"></path></svg>